<svg id="Capa_1" enable-background="new 0 0 512 512" height="512" viewBox="0 0 512 512" width="512" xmlns="http://www.w3.org/2000/svg"><g><g><circle cx="256" cy="256" fill="#fd9468" r="248.5"/><path d="m379.299 40.204c25.722 39.136 40.701 85.963 40.701 136.296 0 137.243-111.257 248.5-248.5 248.5-44.872 0-86.963-11.897-123.299-32.704 44.414 67.578 120.889 112.204 207.799 112.204 137.243 0 248.5-111.257 248.5-248.5 0-92.371-50.401-172.966-125.201-215.796z" fill="#fe7d43"/><circle cx="256" cy="256" fill="#ffdcce" r="216.385"/><g fill="#fd9468"><path d="m258.827 189.59 43.435 43.443c1.562 1.562 4.095 1.562 5.657 0l22.894-22.899c1.562-1.562 1.562-4.094 0-5.656l-71.987-72.004c-1.562-1.563-4.095-1.563-5.658 0l-71.961 71.978c-1.562 1.562-1.562 4.094 0 5.656l22.894 22.899c1.562 1.562 4.095 1.563 5.657 0l43.409-43.417c1.565-1.563 4.098-1.563 5.66 0z"/><path d="m155.391 230.269-22.895 22.9c-1.562 1.562-1.562 4.094 0 5.656l22.893 22.898c1.562 1.563 4.095 1.563 5.657 0l22.895-22.9c1.562-1.562 1.562-4.094 0-5.656l-22.894-22.898c-1.561-1.563-4.094-1.563-5.656 0z"/><path d="m258.827 379.527 72-72.016c1.562-1.563 1.562-4.096-.002-5.658l-22.907-22.886c-1.562-1.561-4.094-1.56-5.656.002l-43.435 43.442c-1.562 1.562-4.095 1.562-5.657 0l-43.413-43.421c-1.561-1.561-4.091-1.563-5.653-.004l-22.928 22.869c-1.565 1.561-1.567 4.097-.004 5.66l71.999 72.012c1.561 1.562 4.094 1.562 5.656 0z"/><path d="m350.953 230.282-22.895 22.9c-1.562 1.562-1.562 4.094 0 5.656l22.894 22.898c1.562 1.562 4.095 1.562 5.657 0l22.895-22.9c1.562-1.562 1.562-4.094 0-5.656l-22.894-22.898c-1.562-1.562-4.095-1.562-5.657 0z"/><path d="m282.156 253.171-23.329-23.334c-1.562-1.562-4.095-1.562-5.657 0l-23.329 23.334c-1.562 1.562-1.562 4.094 0 5.656l23.329 23.336c1.562 1.563 4.095 1.563 5.658 0l23.329-23.336c1.561-1.562 1.561-4.094-.001-5.656z"/></g><path d="m408.918 102.906c7.201 23.256 11.082 47.972 11.082 73.594 0 137.243-111.257 248.5-248.5 248.5-20.335 0-40.092-2.46-59.008-7.068 38.193 33.873 88.443 54.453 143.508 54.453 119.506 0 216.385-96.879 216.385-216.385 0-59.798-24.258-113.929-63.467-153.094z" fill="#ffd1be"/></g><g><path d="m261.302 124.341c-1.406-1.407-3.314-2.197-5.304-2.197s-3.897.791-5.304 2.197l-77.617 77.635c-2.928 2.929-2.928 7.677 0 10.605l28.55 28.556c1.406 1.407 3.314 2.197 5.304 2.197s3.897-.791 5.304-2.197l43.763-43.77 43.789 43.796c1.407 1.407 3.314 2.197 5.304 2.197s3.897-.791 5.304-2.197l28.55-28.557c2.928-2.929 2.928-7.677 0-10.605zm43.789 100.913-43.789-43.796c-1.407-1.407-3.314-2.197-5.304-2.197s-3.897.791-5.304 2.197l-43.763 43.77-17.945-17.949 67.012-67.027 67.038 67.053z"/><path d="m158.22 219.939c-1.989 0-3.897.791-5.304 2.197l-28.551 28.558c-2.928 2.929-2.928 7.677 0 10.605l28.55 28.556c1.406 1.407 3.314 2.197 5.304 2.197s3.897-.791 5.304-2.197l28.551-28.557c2.928-2.929 2.928-7.677 0-10.605l-28.55-28.556c-1.407-1.407-3.315-2.198-5.304-2.198zm-.002 54.006-17.944-17.948 17.946-17.95 17.944 17.948z"/><path d="m201.635 270.854-28.592 28.519c-1.41 1.406-2.182 3.334-2.184 5.325s.809 3.92 2.216 5.328l77.619 77.633c1.407 1.407 3.314 2.197 5.304 2.197s3.897-.791 5.304-2.197l77.643-77.659c.114-.114.238-.247.344-.368 2.611-2.971 2.466-7.46-.333-10.256l-28.566-28.541c-2.93-2.927-7.677-2.926-10.604.003l-43.787 43.794-43.763-43.771c-2.926-2.926-7.671-2.929-10.601-.007zm54.364 61.885c1.989 0 3.897-.791 5.304-2.197l43.79-43.797 17.956 17.94-67.05 67.064-67.046-67.059 17.972-17.926 43.771 43.778c1.406 1.407 3.313 2.197 5.303 2.197z"/><path d="m353.78 292.066c1.989 0 3.897-.791 5.304-2.197l28.551-28.558c2.928-2.929 2.928-7.677 0-10.605l-28.55-28.556c-1.406-1.407-3.314-2.197-5.304-2.197s-3.897.791-5.304 2.197l-28.551 28.557c-2.928 2.929-2.928 7.677 0 10.605l28.55 28.556c1.407 1.408 3.315 2.198 5.304 2.198zm.001-54.005 17.945 17.948-17.946 17.95-17.945-17.948z"/><path d="m255.999 292.493c1.989 0 3.897-.791 5.304-2.197l28.972-28.978c.145-.145.297-.311.429-.466 2.526-2.977 2.346-7.394-.415-10.155l-28.985-28.992c-1.406-1.407-3.314-2.197-5.304-2.197s-3.897.791-5.304 2.197l-28.986 28.992c-2.928 2.929-2.928 7.676 0 10.605l28.986 28.994c1.405 1.406 3.313 2.197 5.303 2.197zm0-54.878 18.38 18.385-18.381 18.385-18.38-18.386z"/><path d="m437.02 74.98c-48.353-48.351-112.64-74.98-181.02-74.98-45.875 0-90.881 12.279-130.152 35.509-3.565 2.109-4.746 6.708-2.637 10.273 2.108 3.565 6.708 4.747 10.273 2.637 36.961-21.863 79.326-33.419 122.516-33.419 64.374 0 124.894 25.068 170.413 70.587s70.587 106.039 70.587 170.413-25.068 124.894-70.587 170.413-106.039 70.587-170.413 70.587-124.894-25.068-170.413-70.587-70.587-106.039-70.587-170.413c0-73.891 33.208-142.68 91.109-188.729 3.242-2.579 3.78-7.297 1.202-10.539-2.579-3.242-7.296-3.779-10.539-1.202-61.5 48.913-96.772 121.981-96.772 200.47 0 68.38 26.629 132.667 74.98 181.02 48.353 48.351 112.64 74.98 181.02 74.98s132.667-26.629 181.02-74.98c48.351-48.353 74.98-112.64 74.98-181.02s-26.629-132.667-74.98-181.02z"/><path d="m159.424 458.04c30.272 14.496 62.765 21.845 96.576 21.845 59.802 0 116.024-23.288 158.311-65.574 42.286-42.287 65.574-98.509 65.574-158.311s-23.288-116.024-65.574-158.311c-42.287-42.286-98.509-65.574-158.311-65.574s-116.024 23.288-158.311 65.574c-42.286 42.287-65.574 98.509-65.574 158.311 0 73.882 36.43 142.963 97.45 184.791 3.417 2.343 8.085 1.47 10.426-1.946 2.342-3.417 1.471-8.084-1.945-10.426-56.938-39.03-90.931-103.485-90.931-172.419 0-115.179 93.706-208.885 208.885-208.885s208.885 93.706 208.885 208.885-93.706 208.885-208.885 208.885c-31.551 0-61.864-6.855-90.098-20.375-3.737-1.789-8.215-.21-10.004 3.525s-.21 8.215 3.526 10.005z"/></g></g></svg>